<svg xmlns="http://www.w3.org/2000/svg" width="365.469" height="81.65" viewBox="0 0 365.469 81.65">
  <defs>
    <style>
      .cls-1 {
        fill: #6d6d6d;
        fill-rule: evenodd;
      }
    </style>
  </defs>
  <path id="_2025" data-name="2025" class="cls-1" d="M366.678,4132.62v-16.9l4.247,16.9H375.1l4.262-16.9v16.9h4.027v-21.47h-6.5l-3.852,14.65-3.9-14.65h-6.487v21.47h4.027Zm32.834-21.47h-4.584l-8.362,21.47h4.6l1.772-4.87h8.582l1.874,4.87h4.716Zm-5.243,12.98,2.9-7.97,2.958,7.97h-5.858Zm21.587,8.49v-6.49l3.515-3.58,5.9,10.07h5.609l-8.524-13.11,8.084-8.36h-5.828l-8.758,9.54v-9.54h-4.335v21.47h4.335Zm34.65,0v-3.61H438.512v-5.85H449.29v-3.62H438.512v-4.76H450.1v-3.63H434.177v21.47h16.329Zm17.266,0v-21.47h-4.334v21.47h4.334Zm9.256,0v-14l8.655,14h4.35v-21.47h-4.028v14.34l-8.787-14.34H473v21.47h4.027Zm37.081,0,7.689-21.47h-4.6l-5.257,15.89-5.434-15.89h-4.7l7.674,21.47h4.628Zm15.158,0v-21.47h-4.335v21.47h4.335Zm21.513,0v-3.61H538.786v-5.85h10.779v-3.62H538.786v-4.76H550.37v-3.63H534.451v21.47H550.78Zm13.9,0v-17.84h6.356v-3.63H553.973v3.63h6.37v17.84h4.335Zm22.612,0v-14l8.655,14h4.35v-21.47h-4.027v14.34l-8.787-14.34h-4.218v21.47h4.027Zm29.407-21.47h-4.584l-8.362,21.47h4.6l1.772-4.87H618.7l1.874,4.87h4.716Zm-5.243,12.98,2.9-7.97,2.958,7.97h-5.858Zm21.162,8.49v-16.9l4.247,16.9h4.174l4.262-16.9v16.9h4.027v-21.47h-6.5l-3.852,14.65-3.895-14.65h-6.488v21.47h4.027Zm-43.6,53.56a19.809,19.809,0,0,1,2.54-3.26q1.536-1.62,6.951-6.17a97.421,97.421,0,0,0,9.275-8.62,22.425,22.425,0,0,0,3.993-5.98,14.765,14.765,0,0,0,1.2-5.79,12.846,12.846,0,0,0-4.11-9.69q-4.112-3.915-11.163-3.91-6.986,0-11.129,3.62t-4.779,10.55l6.183,0.64a9.843,9.843,0,0,1,2.64-7.22,9.389,9.389,0,0,1,6.952-2.61,9.213,9.213,0,0,1,6.667,2.46,8.03,8.03,0,0,1,2.557,6.03,12.439,12.439,0,0,1-2.808,7.24q-2.807,3.825-10.794,10.38a61.411,61.411,0,0,0-7.871,7.42,22.06,22.06,0,0,0-3.96,6.52,10.591,10.591,0,0,0-.7,4.17h32.384v-5.78H589.016Zm35.325,1.54a13.436,13.436,0,0,0,11.129,5.08,13.572,13.572,0,0,0,8.907-2.89,17.435,17.435,0,0,0,5.3-8.19,44.945,44.945,0,0,0,1.771-13.92,48.48,48.48,0,0,0-1.1-11.59,24.514,24.514,0,0,0-3.041-7.28,13.112,13.112,0,0,0-4.913-4.58,14.458,14.458,0,0,0-6.918-1.59,13.616,13.616,0,0,0-8.873,2.87,17.4,17.4,0,0,0-5.314,8.18,44.821,44.821,0,0,0-1.788,13.99q0,13.8,4.846,19.92h0Zm4.445-36.47a7.709,7.709,0,0,1,6.618-3.51c2.807,0,5.152,1.32,7.035,3.98s2.824,8.01,2.824,16.08q0,12.03-2.824,16.04c-1.883,2.68-4.206,4.01-6.969,4.01s-5.085-1.33-6.968-3.99-2.824-8.02-2.824-16.06,1.036-13.56,3.108-16.55h0Zm36.362,34.93a19.809,19.809,0,0,1,2.54-3.26q1.536-1.62,6.951-6.17a97.382,97.382,0,0,0,9.274-8.62,22.431,22.431,0,0,0,3.994-5.98,14.765,14.765,0,0,0,1.2-5.79,12.846,12.846,0,0,0-4.11-9.69q-4.111-3.915-11.163-3.91-6.986,0-11.129,3.62t-4.779,10.55l6.183,0.64a9.843,9.843,0,0,1,2.64-7.22,9.388,9.388,0,0,1,6.951-2.61,9.216,9.216,0,0,1,6.668,2.46,8.03,8.03,0,0,1,2.556,6.03,12.437,12.437,0,0,1-2.807,7.24q-2.807,3.825-10.795,10.38a61.393,61.393,0,0,0-7.87,7.42,22.064,22.064,0,0,0-3.961,6.52,10.608,10.608,0,0,0-.7,4.17h32.384v-5.78H665.148Zm35.308,2.88a15.875,15.875,0,0,0,10.912,3.74,15.519,15.519,0,0,0,12.867-5.95,17.841,17.841,0,0,0,3.877-11.5,15.525,15.525,0,0,0-4.412-11.43,14.643,14.643,0,0,0-10.828-4.45,15.947,15.947,0,0,0-9.257,3.08l2.64-13.17h19.551v-5.75H701.442L696.7,4168.8l5.648,0.73a10.2,10.2,0,0,1,3.676-3.42,10.489,10.489,0,0,1,5.247-1.32,10.091,10.091,0,0,1,7.57,2.97,11.176,11.176,0,0,1,2.891,8.13,12.356,12.356,0,0,1-3.008,8.69,9.611,9.611,0,0,1-7.353,3.27,8.839,8.839,0,0,1-6.166-2.32,11.333,11.333,0,0,1-3.258-6.94l-6.317.54A14.632,14.632,0,0,0,700.456,4189.06Z" transform="translate(-362.656 -4111.16)"/>
</svg>
